<mxfile host="app.diagrams.net" modified="2021-05-29T20:14:42.976Z" agent="5.0 (Windows NT 10.0; Win64; x64) AppleWebKit/537.36 (KHTML, like Gecko) Chrome/91.0.4472.77 Safari/537.36" etag="j4af1gh1nkbr-LAxnt6w" version="14.7.3" type="github">
  <diagram id="C5RBs43oDa-KdzZeNtuy" name="Page-1">
    <mxGraphModel dx="960" dy="591" grid="1" gridSize="10" guides="1" tooltips="1" connect="1" arrows="1" fold="1" page="1" pageScale="1" pageWidth="827" pageHeight="1169" math="0" shadow="0">
      <root>
        <mxCell id="WIyWlLk6GJQsqaUBKTNV-0" />
        <mxCell id="WIyWlLk6GJQsqaUBKTNV-1" parent="WIyWlLk6GJQsqaUBKTNV-0" />
        <mxCell id="zkfFHV4jXpPFQw0GAbJ--0" value="Pessoa" style="swimlane;fontStyle=2;align=center;verticalAlign=top;childLayout=stackLayout;horizontal=1;startSize=26;horizontalStack=0;resizeParent=1;resizeLast=0;collapsible=1;marginBottom=0;rounded=0;shadow=0;strokeWidth=1;" parent="WIyWlLk6GJQsqaUBKTNV-1" vertex="1">
          <mxGeometry x="150" y="90" width="160" height="270" as="geometry">
            <mxRectangle x="230" y="140" width="160" height="26" as="alternateBounds" />
          </mxGeometry>
        </mxCell>
        <mxCell id="zkfFHV4jXpPFQw0GAbJ--1" value="-id: int&#xa;-nome: String&#xa;-sobrenome: String&#xa;-telefone: String&#xa;-cpf: Sitring&#xa;-email: String&#xa;-endereco: String&#xa;-dataNascimento: String&#xa;-sexo: char&#xa;-peso: double" style="text;align=left;verticalAlign=top;spacingLeft=4;spacingRight=4;overflow=hidden;rotatable=0;points=[[0,0.5],[1,0.5]];portConstraint=eastwest;" parent="zkfFHV4jXpPFQw0GAbJ--0" vertex="1">
          <mxGeometry y="26" width="160" height="154" as="geometry" />
        </mxCell>
        <mxCell id="zkfFHV4jXpPFQw0GAbJ--4" value="" style="line;html=1;strokeWidth=1;align=left;verticalAlign=middle;spacingTop=-1;spacingLeft=3;spacingRight=3;rotatable=0;labelPosition=right;points=[];portConstraint=eastwest;" parent="zkfFHV4jXpPFQw0GAbJ--0" vertex="1">
          <mxGeometry y="180" width="160" height="8" as="geometry" />
        </mxCell>
        <mxCell id="zkfFHV4jXpPFQw0GAbJ--5" value="+andar(): void&#xa;+dormir(): void&#xa;+comer(): void&#xa;+respirar(): void&#xa;+pagarImposto: void" style="text;align=left;verticalAlign=top;spacingLeft=4;spacingRight=4;overflow=hidden;rotatable=0;points=[[0,0.5],[1,0.5]];portConstraint=eastwest;" parent="zkfFHV4jXpPFQw0GAbJ--0" vertex="1">
          <mxGeometry y="188" width="160" height="82" as="geometry" />
        </mxCell>
        <mxCell id="gGs3RCaZs9Rj7RqieJmo-0" value="Conta" style="swimlane;fontStyle=2;align=center;verticalAlign=top;childLayout=stackLayout;horizontal=1;startSize=26;horizontalStack=0;resizeParent=1;resizeLast=0;collapsible=1;marginBottom=0;rounded=0;shadow=0;strokeWidth=1;" vertex="1" parent="WIyWlLk6GJQsqaUBKTNV-1">
          <mxGeometry x="370" y="90" width="160" height="270" as="geometry">
            <mxRectangle x="230" y="140" width="160" height="26" as="alternateBounds" />
          </mxGeometry>
        </mxCell>
        <mxCell id="gGs3RCaZs9Rj7RqieJmo-1" value="-numero: int&#xa;-digito: int &#xa;-saldo: double&#xa;-limite: double&#xa;-cliente: String&#xa;-agencia: int &#xa;-banco: int &#xa;-tipo: String&#xa;-cheque: boolean&#xa;-dataAbertura: Date" style="text;align=left;verticalAlign=top;spacingLeft=4;spacingRight=4;overflow=hidden;rotatable=0;points=[[0,0.5],[1,0.5]];portConstraint=eastwest;" vertex="1" parent="gGs3RCaZs9Rj7RqieJmo-0">
          <mxGeometry y="26" width="160" height="154" as="geometry" />
        </mxCell>
        <mxCell id="gGs3RCaZs9Rj7RqieJmo-2" value="" style="line;html=1;strokeWidth=1;align=left;verticalAlign=middle;spacingTop=-1;spacingLeft=3;spacingRight=3;rotatable=0;labelPosition=right;points=[];portConstraint=eastwest;" vertex="1" parent="gGs3RCaZs9Rj7RqieJmo-0">
          <mxGeometry y="180" width="160" height="8" as="geometry" />
        </mxCell>
        <mxCell id="gGs3RCaZs9Rj7RqieJmo-3" value="+sacar(): void &#xa;+depositar(): void&#xa;+tranferir(): void&#xa;+consultarSaldo(): void&#xa;+pagarBoleto(): void&#xa;" style="text;align=left;verticalAlign=top;spacingLeft=4;spacingRight=4;overflow=hidden;rotatable=0;points=[[0,0.5],[1,0.5]];portConstraint=eastwest;" vertex="1" parent="gGs3RCaZs9Rj7RqieJmo-0">
          <mxGeometry y="188" width="160" height="82" as="geometry" />
        </mxCell>
        <mxCell id="gGs3RCaZs9Rj7RqieJmo-4" value="Carro" style="swimlane;fontStyle=2;align=center;verticalAlign=top;childLayout=stackLayout;horizontal=1;startSize=26;horizontalStack=0;resizeParent=1;resizeLast=0;collapsible=1;marginBottom=0;rounded=0;shadow=0;strokeWidth=1;" vertex="1" parent="WIyWlLk6GJQsqaUBKTNV-1">
          <mxGeometry x="590" y="90" width="160" height="270" as="geometry">
            <mxRectangle x="230" y="140" width="160" height="26" as="alternateBounds" />
          </mxGeometry>
        </mxCell>
        <mxCell id="gGs3RCaZs9Rj7RqieJmo-5" value="-id: int&#xa;-marca: String&#xa;-motor: double&#xa;-modelo: String&#xa;-dataFabricante: Date&#xa;-peso: double&#xa;-quantidadeMarcha: int&#xa;-quantidadePorta: int&#xa;-placa: String&#xa;-cor: String" style="text;align=left;verticalAlign=top;spacingLeft=4;spacingRight=4;overflow=hidden;rotatable=0;points=[[0,0.5],[1,0.5]];portConstraint=eastwest;" vertex="1" parent="gGs3RCaZs9Rj7RqieJmo-4">
          <mxGeometry y="26" width="160" height="154" as="geometry" />
        </mxCell>
        <mxCell id="gGs3RCaZs9Rj7RqieJmo-6" value="" style="line;html=1;strokeWidth=1;align=left;verticalAlign=middle;spacingTop=-1;spacingLeft=3;spacingRight=3;rotatable=0;labelPosition=right;points=[];portConstraint=eastwest;" vertex="1" parent="gGs3RCaZs9Rj7RqieJmo-4">
          <mxGeometry y="180" width="160" height="8" as="geometry" />
        </mxCell>
        <mxCell id="gGs3RCaZs9Rj7RqieJmo-7" value="+ligar(): void&#xa;+desligar(): void&#xa;+acelerar(): void&#xa;+frear(): void&#xa;+abastecer(): void" style="text;align=left;verticalAlign=top;spacingLeft=4;spacingRight=4;overflow=hidden;rotatable=0;points=[[0,0.5],[1,0.5]];portConstraint=eastwest;" vertex="1" parent="gGs3RCaZs9Rj7RqieJmo-4">
          <mxGeometry y="188" width="160" height="82" as="geometry" />
        </mxCell>
        <mxCell id="gGs3RCaZs9Rj7RqieJmo-8" value="Animal" style="swimlane;fontStyle=2;align=center;verticalAlign=top;childLayout=stackLayout;horizontal=1;startSize=26;horizontalStack=0;resizeParent=1;resizeLast=0;collapsible=1;marginBottom=0;rounded=0;shadow=0;strokeWidth=1;" vertex="1" parent="WIyWlLk6GJQsqaUBKTNV-1">
          <mxGeometry x="280" y="390" width="160" height="270" as="geometry">
            <mxRectangle x="230" y="140" width="160" height="26" as="alternateBounds" />
          </mxGeometry>
        </mxCell>
        <mxCell id="gGs3RCaZs9Rj7RqieJmo-9" value="-id: int&#xa;-nome: String	&#xa;-sobrenome: String&#xa;-dataNascimento: Date&#xa;-sexo: char&#xa;-especie:String&#xa;-raca: String&#xa;-quantidadePatas: int&#xa;-tipoPelo: String	&#xa;-peso:double" style="text;align=left;verticalAlign=top;spacingLeft=4;spacingRight=4;overflow=hidden;rotatable=0;points=[[0,0.5],[1,0.5]];portConstraint=eastwest;" vertex="1" parent="gGs3RCaZs9Rj7RqieJmo-8">
          <mxGeometry y="26" width="160" height="154" as="geometry" />
        </mxCell>
        <mxCell id="gGs3RCaZs9Rj7RqieJmo-10" value="" style="line;html=1;strokeWidth=1;align=left;verticalAlign=middle;spacingTop=-1;spacingLeft=3;spacingRight=3;rotatable=0;labelPosition=right;points=[];portConstraint=eastwest;" vertex="1" parent="gGs3RCaZs9Rj7RqieJmo-8">
          <mxGeometry y="180" width="160" height="8" as="geometry" />
        </mxCell>
        <mxCell id="gGs3RCaZs9Rj7RqieJmo-11" value="+andar(): void&#xa;+dormir(): void&#xa;+comer(): void&#xa;+respirar(): void&#xa;+brincar(): void" style="text;align=left;verticalAlign=top;spacingLeft=4;spacingRight=4;overflow=hidden;rotatable=0;points=[[0,0.5],[1,0.5]];portConstraint=eastwest;" vertex="1" parent="gGs3RCaZs9Rj7RqieJmo-8">
          <mxGeometry y="188" width="160" height="82" as="geometry" />
        </mxCell>
        <mxCell id="gGs3RCaZs9Rj7RqieJmo-12" value="Produto" style="swimlane;fontStyle=2;align=center;verticalAlign=top;childLayout=stackLayout;horizontal=1;startSize=26;horizontalStack=0;resizeParent=1;resizeLast=0;collapsible=1;marginBottom=0;rounded=0;shadow=0;strokeWidth=1;" vertex="1" parent="WIyWlLk6GJQsqaUBKTNV-1">
          <mxGeometry x="510" y="390" width="160" height="270" as="geometry">
            <mxRectangle x="230" y="140" width="160" height="26" as="alternateBounds" />
          </mxGeometry>
        </mxCell>
        <mxCell id="gGs3RCaZs9Rj7RqieJmo-13" value="-codigo: int&#xa;-nome: String&#xa;-data: Date&#xa;-quantidade: int&#xa;-cor: char&#xa;-tamanho: double&#xa;-vencimento: Date&#xa;-quantidadeMinima: int&#xa;-quantidadeMaxima: int&#xa;-quantidadeSeguranca: int" style="text;align=left;verticalAlign=top;spacingLeft=4;spacingRight=4;overflow=hidden;rotatable=0;points=[[0,0.5],[1,0.5]];portConstraint=eastwest;" vertex="1" parent="gGs3RCaZs9Rj7RqieJmo-12">
          <mxGeometry y="26" width="160" height="154" as="geometry" />
        </mxCell>
        <mxCell id="gGs3RCaZs9Rj7RqieJmo-14" value="" style="line;html=1;strokeWidth=1;align=left;verticalAlign=middle;spacingTop=-1;spacingLeft=3;spacingRight=3;rotatable=0;labelPosition=right;points=[];portConstraint=eastwest;" vertex="1" parent="gGs3RCaZs9Rj7RqieJmo-12">
          <mxGeometry y="180" width="160" height="8" as="geometry" />
        </mxCell>
        <mxCell id="gGs3RCaZs9Rj7RqieJmo-15" value="+gravar(): void&#xa;+excluir(): void&#xa;+alterar(): void&#xa;+entrar(): void&#xa;+sair(): void" style="text;align=left;verticalAlign=top;spacingLeft=4;spacingRight=4;overflow=hidden;rotatable=0;points=[[0,0.5],[1,0.5]];portConstraint=eastwest;" vertex="1" parent="gGs3RCaZs9Rj7RqieJmo-12">
          <mxGeometry y="188" width="160" height="82" as="geometry" />
        </mxCell>
      </root>
    </mxGraphModel>
  </diagram>
</mxfile>
